<svg width="21" height="20" viewBox="0 0 21 20" fill="none" xmlns="http://www.w3.org/2000/svg">
<path d="M3.84415 5.01801C6.23045 1.84093 11.1707 0.916449 14.6875 3.10304C18.1601 5.26215 19.4372 9.41328 18.0149 13.3082C16.6719 16.9858 13.1333 18.443 10.5829 16.593C9.62748 15.9 9.25712 15.0313 9.07811 13.6202L8.9926 12.8186L8.95575 12.4961C8.85625 11.7383 8.70337 11.3987 8.38427 11.2209C7.9497 10.9786 7.66034 10.973 7.08972 11.1941L6.80483 11.3123L6.6598 11.3755C5.83724 11.7327 5.29005 11.8583 4.59794 11.7132L4.43545 11.6749L4.30277 11.6371C2.03983 10.9359 1.70466 7.8665 3.84415 5.01801ZM14.3338 8.84945C14.4788 9.39051 15.0349 9.7116 15.576 9.56662C16.117 9.42165 16.4381 8.8655 16.2932 8.32444C16.1482 7.78338 15.592 7.46229 15.051 7.60727C14.5099 7.75225 14.1888 8.30839 14.3338 8.84945ZM14.7351 11.6801C14.8801 12.2212 15.4362 12.5423 15.9773 12.3973C16.5183 12.2523 16.8394 11.6962 16.6945 11.1551C16.5495 10.614 15.9933 10.293 15.4523 10.4379C14.9112 10.5829 14.5901 11.1391 14.7351 11.6801ZM12.7285 6.41311C12.8734 6.95417 13.4296 7.27526 13.9706 7.13028C14.5117 6.9853 14.8328 6.42916 14.6878 5.8881C14.5428 5.34704 13.9867 5.02595 13.4456 5.17093C12.9046 5.3159 12.5835 5.87205 12.7285 6.41311ZM12.7054 13.7143C12.8503 14.2554 13.4065 14.5764 13.9475 14.4315C14.4886 14.2865 14.8097 13.7303 14.6647 13.1893C14.5197 12.6482 13.9636 12.3271 13.4225 12.4721C12.8815 12.6171 12.5604 13.1732 12.7054 13.7143ZM9.86799 5.62477C10.013 6.16583 10.5691 6.48692 11.1102 6.34194C11.6512 6.19696 11.9723 5.64082 11.8273 5.09976C11.6824 4.5587 11.1262 4.23761 10.5852 4.38259C10.0441 4.52756 9.72302 5.08371 9.86799 5.62477Z" fill="white"/>
</svg>
