<svg width="17" height="18" viewBox="0 0 17 18" fill="none" xmlns="http://www.w3.org/2000/svg">
<g clip-path="url(#clip0_344_1264)">
<path d="M7.80665 11.7795V5.65928C7.80665 5.19916 7.4322 4.82471 6.97208 4.82471H0.851905C0.391782 4.82471 0.017334 5.19916 0.017334 5.65928V11.7795C0.017334 12.2396 0.391782 12.614 0.851905 12.614H6.97208C7.4322 12.6141 7.80665 12.2396 7.80665 11.7795ZM1.4083 6.21567H4.19019C4.34374 6.21567 4.46837 6.3403 4.46837 6.49385C4.46837 6.6474 4.34374 6.77203 4.19019 6.77203H1.4083C1.25475 6.77203 1.13012 6.6474 1.13012 6.49385C1.13012 6.3403 1.25472 6.21567 1.4083 6.21567ZM1.13008 9.83213C1.13008 9.67858 1.25472 9.55395 1.40826 9.55395H2.52105C2.67459 9.55395 2.79923 9.67858 2.79923 9.83213C2.79923 9.98568 2.67459 10.1103 2.52105 10.1103H1.4083C1.25472 10.1103 1.13008 9.98571 1.13008 9.83213ZM4.19019 11.2231H1.96466C1.81111 11.2231 1.68648 11.0985 1.68648 10.9449C1.68648 10.7914 1.81111 10.6667 1.96466 10.6667H4.19019C4.34374 10.6667 4.46837 10.7914 4.46837 10.9449C4.46837 11.0985 4.34374 11.2231 4.19019 11.2231ZM4.19019 8.99756H1.4083C1.25475 8.99756 1.13012 8.87293 1.13012 8.71938C1.13012 8.56583 1.25475 8.4412 1.4083 8.4412H4.19019C4.34374 8.4412 4.46837 8.56583 4.46837 8.71938C4.46837 8.87296 4.34374 8.99756 4.19019 8.99756ZM5.30294 7.88481H2.24287C2.08932 7.88481 1.96469 7.76018 1.96469 7.60663C1.96469 7.45308 2.08932 7.32845 2.24287 7.32845H5.30297C5.45652 7.32845 5.58115 7.45308 5.58115 7.60663C5.58115 7.76018 5.45652 7.88481 5.30294 7.88481Z" fill="white"/>
<path d="M15.8742 4.82471H9.754C9.29388 4.82471 8.91943 5.19916 8.91943 5.65928V11.7795C8.91943 12.2396 9.29388 12.614 9.754 12.614H15.8742C16.3343 12.614 16.7087 12.2396 16.7087 11.7795V5.65925C16.7087 5.19912 16.3343 4.82471 15.8742 4.82471ZM10.3104 6.21564H13.0923C13.2458 6.21564 13.3704 6.34027 13.3704 6.49382C13.3704 6.64736 13.2458 6.772 13.0923 6.772H10.3104C10.1568 6.772 10.0322 6.64736 10.0322 6.49382C10.0322 6.34027 10.1568 6.21564 10.3104 6.21564ZM10.0322 9.8321C10.0322 9.67855 10.1568 9.55392 10.3104 9.55392H11.4231C11.5767 9.55392 11.7013 9.67855 11.7013 9.8321C11.7013 9.98565 11.5767 10.1103 11.4231 10.1103H10.3104C10.1568 10.1103 10.0322 9.98568 10.0322 9.8321ZM13.0923 11.2231H10.8668C10.7132 11.2231 10.5886 11.0984 10.5886 10.9449C10.5886 10.7913 10.7132 10.6667 10.8668 10.6667H13.0923C13.2458 10.6667 13.3705 10.7913 13.3705 10.9449C13.3705 11.0984 13.2458 11.2231 13.0923 11.2231ZM13.0923 8.99753H10.3104C10.1568 8.99753 10.0322 8.8729 10.0322 8.71935C10.0322 8.5658 10.1568 8.44117 10.3104 8.44117H13.0923C13.2458 8.44117 13.3705 8.5658 13.3705 8.71935C13.3705 8.87293 13.2458 8.99753 13.0923 8.99753ZM14.205 7.88478H11.1449C10.9914 7.88478 10.8668 7.76015 10.8668 7.6066C10.8668 7.45305 10.9914 7.32842 11.1449 7.32842H14.205C14.3586 7.32842 14.4832 7.45305 14.4832 7.6066C14.4832 7.76015 14.3586 7.88478 14.205 7.88478Z" fill="white"/>
<path d="M4.0349 3.40549C5.60139 2.63547 6.85546 2.3214 8.36326 2.3214C9.66324 2.3214 10.7757 2.55674 12.0613 3.11479L10.8606 3.51705C10.7151 3.56572 10.6364 3.72348 10.6853 3.86923C10.7243 3.98552 10.8328 4.05923 10.9491 4.05923C10.9783 4.05923 11.008 4.0545 11.0375 4.04449L12.9025 3.41967C12.9072 3.41801 12.9106 3.41439 12.915 3.41243C12.9403 3.40269 12.9634 3.38906 12.9849 3.37211C12.9918 3.36683 12.9988 3.36181 13.0052 3.35571C13.0271 3.33455 13.0469 3.31092 13.0614 3.28226C13.0619 3.28115 13.0628 3.28031 13.0633 3.27949C13.0636 3.2792 13.0639 3.27894 13.0639 3.27864C13.0678 3.27085 13.0672 3.26251 13.0703 3.25471C13.0803 3.22883 13.0895 3.20242 13.0914 3.17432C13.0934 3.14485 13.0878 3.11619 13.0805 3.0878C13.0789 3.08112 13.0802 3.07417 13.078 3.06749L13.0775 3.06609L12.453 1.20222C12.4043 1.05673 12.2468 0.977445 12.1008 1.02696C11.9553 1.07564 11.8765 1.23339 11.9255 1.37915L12.3445 2.62989C10.9594 2.01981 9.76674 1.76501 8.36326 1.76501C6.7634 1.76501 5.43839 2.09551 3.78926 2.90615C3.65156 2.97402 3.59454 3.14068 3.66241 3.27864C3.73029 3.41635 3.89665 3.47336 4.0349 3.40549Z" fill="white"/>
<path d="M12.6914 14.0417C11.1249 14.8118 9.87082 15.1258 8.36302 15.1258C7.06305 15.1258 5.95056 14.8905 4.66502 14.3324L5.8657 13.9302C6.01119 13.8815 6.08992 13.7237 6.04096 13.578C5.99229 13.4325 5.83509 13.3538 5.68878 13.4027L3.8238 14.0275C3.82325 14.0278 3.82296 14.0281 3.82269 14.0281C3.78846 14.0398 3.75678 14.0579 3.72923 14.0821C3.70142 14.1062 3.67916 14.1355 3.66302 14.168C3.66272 14.1683 3.66246 14.1683 3.66246 14.1683C3.65858 14.1763 3.65914 14.1844 3.65607 14.1922C3.64607 14.2184 3.63687 14.2445 3.63492 14.2729C3.63296 14.3024 3.63854 14.3308 3.64577 14.3591C3.64744 14.3661 3.64607 14.373 3.64828 14.3797L3.64884 14.3811L4.27336 16.245C4.31232 16.3612 4.42081 16.435 4.5371 16.435C4.56631 16.435 4.59607 16.4299 4.62558 16.4202C4.77107 16.3715 4.8498 16.2138 4.80084 16.068L4.38189 14.8173C5.76698 15.4274 6.9596 15.6822 8.36308 15.6822C9.96295 15.6822 11.288 15.3517 12.9371 14.541C13.0748 14.4732 13.1318 14.3065 13.0639 14.1685C12.996 14.0309 12.8296 13.9736 12.6914 14.0417Z" fill="white"/>
</g>
<defs>
<clipPath id="clip0_344_1264">
<rect width="16.6914" height="16.6914" fill="white" transform="translate(0.017334 0.37793)"/>
</clipPath>
</defs>
</svg>
