<svg width="21" height="20" viewBox="0 0 21 20" fill="none" xmlns="http://www.w3.org/2000/svg">
<g clip-path="url(#clip0_344_1228)">
<path d="M20.3092 4.63447V3.99658H17.5664V4.63447H18.6189V15.3687H17.5664V16.0065H20.3092V15.3687H19.2568V4.63447H20.3092Z" fill="#F4F4F4"/>
<path d="M0.953797 13.4104L4.16401 6.16101C4.38783 5.66111 4.79554 5.3584 5.34829 5.3584H5.4667C6.0191 5.3584 6.41394 5.66105 6.63752 6.16101L9.84785 13.4104C9.91364 13.5552 9.9532 13.6867 9.9532 13.8183C9.9532 14.3577 9.53214 14.7919 8.99268 14.7919C8.51906 14.7919 8.20324 14.5157 8.0191 14.0945L7.4008 12.6474H3.34846L2.70376 14.1604C2.53268 14.5551 2.19069 14.7919 1.76963 14.7919C1.24317 14.7919 0.835449 14.3709 0.835449 13.8446C0.835449 13.6999 0.88801 13.5552 0.953797 13.4104ZM6.6508 10.858L5.37451 7.81879L4.09834 10.858H6.6508Z" fill="white"/>
<path d="M10.9136 12.6869V12.6606C10.9136 11.1212 12.0846 10.4108 13.7555 10.4108C14.466 10.4108 14.9792 10.5292 15.4792 10.7002V10.5818C15.4792 9.75288 14.966 9.29249 13.9661 9.29249C13.4135 9.29249 12.9661 9.37139 12.5846 9.48985C12.4662 9.5293 12.3872 9.54241 12.295 9.54241C11.8346 9.54241 11.4663 9.1872 11.4663 8.72675C11.4663 8.37147 11.6898 8.06888 12.0056 7.95041C12.6371 7.7136 13.3214 7.58203 14.2555 7.58203C15.3474 7.58203 16.1369 7.87146 16.6369 8.37142C17.1632 8.89765 17.4 9.67399 17.4 10.6213V13.8315C17.4 14.371 16.9658 14.792 16.4263 14.792C15.8474 14.792 15.4659 14.3841 15.4659 13.9631V13.9499C14.9791 14.4893 14.308 14.8445 13.3345 14.8445C12.0056 14.8446 10.9136 14.0816 10.9136 12.6869ZM15.5053 12.2264V11.8712C15.1633 11.7133 14.7159 11.608 14.2291 11.608C13.3739 11.608 12.8477 11.9501 12.8477 12.5816V12.6079C12.8477 13.1474 13.295 13.4631 13.9397 13.4631C14.8738 13.4632 15.5053 12.9501 15.5053 12.2264Z" fill="white"/>
</g>
<defs>
<clipPath id="clip0_344_1228">
<rect width="19.4733" height="19.4733" fill="white" transform="translate(0.835449 0.265137)"/>
</clipPath>
</defs>
</svg>
