<svg width="56" height="40" viewBox="0 0 56 40" fill="none" xmlns="http://www.w3.org/2000/svg">
<ellipse cx="2.25765" cy="1.99792" rx="1.39095" ry="1.46033" fill="#FF5C00"/>
<ellipse cx="2.25765" cy="26.3583" rx="1.39095" ry="1.46033" fill="#FF5C00"/>
<ellipse cx="23.0609" cy="1.99792" rx="1.39095" ry="1.46033" fill="#FF5C00"/>
<ellipse cx="23.0609" cy="26.3583" rx="1.39095" ry="1.46033" fill="#FF5C00"/>
<ellipse cx="43.8641" cy="1.99792" rx="1.39095" ry="1.46033" fill="#FF5C00"/>
<ellipse cx="43.8641" cy="26.3583" rx="1.39095" ry="1.46033" fill="#FF5C00"/>
<ellipse cx="2.25765" cy="14.1786" rx="1.39095" ry="1.46033" fill="#FF5C00"/>
<ellipse cx="2.25765" cy="38.5389" rx="1.39095" ry="1.46033" fill="#FF5C00"/>
<ellipse cx="23.0609" cy="14.1786" rx="1.39095" ry="1.46033" fill="#FF5C00"/>
<ellipse cx="23.0609" cy="38.5389" rx="1.39095" ry="1.46033" fill="#FF5C00"/>
<ellipse cx="43.8641" cy="14.1786" rx="1.39095" ry="1.46033" fill="#FF5C00"/>
<ellipse cx="43.8641" cy="38.5389" rx="1.39095" ry="1.46033" fill="#FF5C00"/>
<ellipse cx="12.659" cy="1.99792" rx="1.39095" ry="1.46033" fill="#FF5C00"/>
<ellipse cx="12.659" cy="26.3583" rx="1.39095" ry="1.46033" fill="#FF5C00"/>
<ellipse cx="33.4622" cy="1.99792" rx="1.39095" ry="1.46033" fill="#FF5C00"/>
<ellipse cx="33.4622" cy="26.3583" rx="1.39095" ry="1.46033" fill="#FF5C00"/>
<ellipse cx="54.2655" cy="1.99792" rx="1.39095" ry="1.46033" fill="#FF5C00"/>
<ellipse cx="54.2655" cy="26.3583" rx="1.39095" ry="1.46033" fill="#FF5C00"/>
<ellipse cx="12.659" cy="14.1786" rx="1.39095" ry="1.46033" fill="#FF5C00"/>
<ellipse cx="12.659" cy="38.5389" rx="1.39095" ry="1.46033" fill="#FF5C00"/>
<ellipse cx="33.4622" cy="14.1786" rx="1.39095" ry="1.46033" fill="#FF5C00"/>
<ellipse cx="33.4622" cy="38.5389" rx="1.39095" ry="1.46033" fill="#FF5C00"/>
<ellipse cx="54.2655" cy="14.1786" rx="1.39095" ry="1.46033" fill="#FF5C00"/>
<ellipse cx="54.2655" cy="38.5389" rx="1.39095" ry="1.46033" fill="#FF5C00"/>
</svg>
