<svg width="114" height="115" viewBox="0 0 114 115" fill="none" xmlns="http://www.w3.org/2000/svg">
<mask id="mask0_344_1164" style="mask-type:alpha" maskUnits="userSpaceOnUse" x="0" y="0" width="114" height="115">
<rect x="0.0317383" y="0.594238" width="113.77" height="113.77" fill="#C4C4C4"/>
</mask>
<g mask="url(#mask0_344_1164)">
<rect x="0.0317383" y="0.594238" width="113.77" height="114.27" rx="1.25022" fill="#D9D9D9"/>
<rect opacity="0.05" x="0.0317383" y="0.594238" width="113.77" height="113.77" rx="1.25022" fill="#42489E"/>
</g>
<g clip-path="url(#clip0_344_1164)">
<path d="M56.5791 55.9707C67.0942 55.9707 75.6184 47.4465 75.6184 36.9314C75.6184 26.4163 67.0942 17.8921 56.5791 17.8921C46.064 17.8921 37.5398 26.4163 37.5398 36.9314C37.5398 47.4465 46.064 55.9707 56.5791 55.9707Z" fill="white"/>
<path d="M79.2296 58.918C78.9293 58.714 78.3254 58.3217 78.3254 58.3217C73.4586 65.0785 65.5241 69.4858 56.5791 69.4858C47.6333 69.4858 39.698 65.0775 34.8313 58.3193C34.8313 58.3193 34.3237 58.6517 34.0715 58.8215C23.3159 66.0662 16.2415 78.3574 16.2415 92.3007V96.5304H96.9166V92.3007C96.9166 78.4192 89.9048 66.1754 79.2296 58.918Z" fill="white"/>
</g>
<defs>
<clipPath id="clip0_344_1164">
<rect width="80.6752" height="80.6752" fill="white" transform="translate(16.2415 16.8735)"/>
</clipPath>
</defs>
</svg>
