<svg width="9" height="9" viewBox="0 0 9 9" fill="none" xmlns="http://www.w3.org/2000/svg">
<path d="M4.21799 8.17318C2.01135 8.17318 0.217285 6.38224 0.217285 4.17873C0.217285 1.97209 2.01135 0.181152 4.21799 0.181152C6.42463 0.181152 8.21869 1.97209 8.21869 4.1756C8.21869 6.37912 6.42463 8.17318 4.21799 8.17318ZM7.59046 4.72258C7.47481 4.68507 6.53402 4.4069 5.46196 4.57567C5.90891 5.80089 6.09019 6.80106 6.12457 7.00735C6.89346 6.49164 7.44043 5.67274 7.59046 4.72258ZM5.5526 7.32303C5.50259 7.02298 5.30255 5.97905 4.82434 4.73508C4.81809 4.7382 4.80872 4.74133 4.80247 4.74133C2.874 5.41332 2.18326 6.74793 2.12074 6.87295C2.69897 7.32303 3.42722 7.59183 4.21799 7.59183C4.68995 7.59495 5.14315 7.49806 5.5526 7.32303ZM1.68004 6.46351C1.75818 6.33223 2.69585 4.78196 4.45866 4.20998C4.50241 4.19436 4.5493 4.18186 4.59305 4.16935C4.50866 3.97557 4.4149 3.78178 4.31488 3.59113C2.60833 4.10059 0.951789 4.07871 0.801763 4.07559C0.801763 4.10997 0.798637 4.14435 0.798637 4.17873C0.801763 5.05701 1.13307 5.85715 1.68004 6.46351ZM0.87365 3.48173C1.0268 3.48486 2.4333 3.49111 4.03358 3.06603C3.46786 2.05961 2.85525 1.21571 2.76773 1.09381C1.80819 1.54389 1.09556 2.4253 0.87365 3.48173ZM3.41785 0.862522C3.51161 0.987544 4.1336 1.83144 4.69307 2.85975C5.90891 2.40342 6.4215 1.7158 6.48401 1.62828C5.88078 1.09381 5.08689 0.768756 4.21799 0.768756C3.94294 0.768756 3.67414 0.803137 3.41785 0.862522ZM6.8622 2.0221C6.79032 2.11899 6.21834 2.8535 4.95562 3.36921C5.03376 3.53174 5.1119 3.6974 5.18378 3.86305C5.20879 3.92243 5.23379 3.98182 5.2588 4.03808C6.3965 3.8943 7.52482 4.1256 7.63734 4.14747C7.62796 3.34421 7.34041 2.60345 6.8622 2.0221Z" fill="#F2F2F2"/>
</svg>
