<svg width="15" height="15" viewBox="0 0 15 15" fill="none" xmlns="http://www.w3.org/2000/svg">
<path d="M7.65536 13.0778C10.7282 13.0778 13.2192 10.5868 13.2192 7.514C13.2192 4.4412 10.7282 1.9502 7.65536 1.9502C4.58255 1.9502 2.09155 4.4412 2.09155 7.514C2.09155 10.5868 4.58255 13.0778 7.65536 13.0778Z" stroke="black" stroke-opacity="0.6" stroke-width="1.11276" stroke-linecap="round" stroke-linejoin="round"/>
<path d="M7.65545 13.0778C9.13913 11.729 9.88098 9.8744 9.88098 7.514C9.88098 5.1536 9.13913 3.299 7.65545 1.9502C6.17177 3.299 5.42993 5.1536 5.42993 7.514C5.42993 9.8744 6.17177 11.729 7.65545 13.0778Z" stroke="black" stroke-opacity="0.6" stroke-width="1.11276" stroke-linecap="round" stroke-linejoin="round"/>
<path d="M2.36987 5.84473H12.9411M2.36987 9.18301H12.9411" stroke="black" stroke-opacity="0.6" stroke-width="1.11276" stroke-linecap="round" stroke-linejoin="round"/>
</svg>
