<svg width="114" height="35" viewBox="0 0 114 35" fill="none" xmlns="http://www.w3.org/2000/svg">
<rect x="79" width="35" height="35" rx="17.5" fill="#F6F8F9"/>
<path d="M102.757 13.3652C101.126 11.8129 98.4711 11.8129 96.8393 13.3648L96.5 13.6871L96.1611 13.365C94.5292 11.8128 91.8744 11.813 90.2425 13.365C89.4412 14.1271 89 15.138 89 16.2111C89 17.2846 89.4412 18.2953 90.2426 19.0578L96.1377 24.6545C96.2391 24.751 96.3697 24.799 96.5 24.799C96.6303 24.799 96.7607 24.7508 96.8623 24.6543L102.757 19.0578C103.559 18.2955 104 17.2847 104 16.2113C104 15.138 103.559 14.1273 102.757 13.3652ZM102.032 18.2946L96.5 23.5469L90.9681 18.2948C90.3777 17.7334 90.0526 16.9934 90.0526 16.2113C90.0526 15.4292 90.3777 14.6892 90.9681 14.1278C91.5839 13.5418 92.3926 13.249 93.2016 13.249C94.0107 13.249 94.8198 13.5422 95.4356 14.1281L96.1374 14.7947C96.3405 14.9878 96.6593 14.9878 96.8625 14.7947L97.5644 14.1278C98.7961 12.956 100.8 12.956 102.032 14.1278C102.622 14.6892 102.947 15.4292 102.947 16.2113C102.947 16.9934 102.622 17.7332 102.032 18.2946Z" fill="#696969"/>
<g clip-path="url(#clip0_2001_278)">
<path d="M51.5 10C47.3642 10 44 13.3642 44 17.5C44 21.6358 47.3642 25 51.5 25C55.6358 25 59 21.6352 59 17.5C59 13.3648 55.6358 10 51.5 10ZM51.5 23.8381C48.0056 23.8381 45.1619 20.995 45.1619 17.5C45.1619 14.005 48.0056 11.1619 51.5 11.1619C54.9944 11.1619 57.8381 14.005 57.8381 17.5C57.8381 20.995 54.995 23.8381 51.5 23.8381Z" fill="#696969"/>
<path d="M54.4046 16.8666H52.0808V14.5429C52.0808 14.2222 51.8211 13.9619 51.4998 13.9619C51.1786 13.9619 50.9189 14.2222 50.9189 14.5429V16.8666H48.5951C48.2738 16.8666 48.0142 17.1269 48.0142 17.4476C48.0142 17.7683 48.2738 18.0286 48.5951 18.0286H50.9189V20.3523C50.9189 20.673 51.1786 20.9333 51.4998 20.9333C51.8211 20.9333 52.0808 20.673 52.0808 20.3523V18.0286H54.4046C54.7258 18.0286 54.9855 17.7683 54.9855 17.4476C54.9855 17.1269 54.7258 16.8666 54.4046 16.8666Z" fill="#696969"/>
</g>
<g clip-path="url(#clip1_2001_278)">
<path d="M13.4531 11H9.41205C9.11001 11 8.86517 11.2448 8.86517 11.5469C8.86517 11.8489 9.11001 12.0938 9.41205 12.0938H12.1328L7.74905 16.4776C7.53547 16.6911 7.53547 17.0374 7.74905 17.2509C7.96261 17.4645 8.30886 17.4645 8.52244 17.2509L12.9062 12.8671V15.5879C12.9062 15.89 13.1511 16.1348 13.4531 16.1348C13.7552 16.1348 14 15.89 14 15.5879V11.5469C14 11.2492 13.7581 11 13.4531 11Z" fill="#696969"/>
<path d="M6.25095 18.749C6.03736 18.5355 5.69111 18.5355 5.47755 18.749L1.09375 23.1328V20.4121C1.09375 20.11 0.848914 19.8652 0.546875 19.8652C0.244836 19.8652 0 20.11 0 20.4121V24.4531C0 24.7502 0.242074 25 0.546875 25H4.58795C4.88999 25 5.13483 24.7552 5.13483 24.4531C5.13483 24.1511 4.88999 23.9062 4.58795 23.9062H1.86714L6.25095 19.5224C6.46453 19.3089 6.46453 18.9626 6.25095 18.749Z" fill="#696969"/>
</g>
<defs>
<clipPath id="clip0_2001_278">
<rect width="15" height="15" fill="white" transform="translate(44 10)"/>
</clipPath>
<clipPath id="clip1_2001_278">
<rect width="14" height="14" fill="white" transform="translate(0 11)"/>
</clipPath>
</defs>
</svg>
