<svg width="8" height="7" viewBox="0 0 8 7" fill="none" xmlns="http://www.w3.org/2000/svg">
<path d="M7.15904 1.88527C7.15904 1.9509 7.15904 2.01654 7.15904 2.0728C7.15904 4.01376 5.67753 6.25478 2.97706 6.25478C2.14254 6.25478 1.37365 6.01099 0.717285 5.59842C0.829805 5.60779 0.951701 5.61717 1.06422 5.61717C1.74872 5.61717 2.38633 5.38275 2.89267 4.98894C2.24568 4.97956 1.70183 4.54823 1.52368 3.96688C1.61744 3.98563 1.70183 3.99501 1.80498 3.99501C1.93625 3.99501 2.06752 3.97626 2.18942 3.93875C1.5143 3.80748 1.00796 3.21675 1.00796 2.50412C1.00796 2.49475 1.00796 2.49475 1.00796 2.48537C1.20487 2.59789 1.42991 2.66353 1.6737 2.6729C1.27988 2.41036 1.01734 1.96028 1.01734 1.44456C1.01734 1.17264 1.09235 0.91947 1.21425 0.703808C1.93625 1.59459 3.02394 2.17594 4.2429 2.24158C4.21477 2.13843 4.2054 2.01654 4.2054 1.90402C4.2054 1.08825 4.86176 0.431885 5.67753 0.431885C6.09948 0.431885 6.48392 0.610041 6.74647 0.89134C7.08403 0.825704 7.39346 0.703808 7.68413 0.535028C7.57161 0.881964 7.3372 1.16326 7.03715 1.3508C7.3372 1.31329 7.6185 1.23828 7.88104 1.11638C7.69351 1.41643 7.44972 1.67898 7.15904 1.88527Z" fill="#F2F2F2"/>
</svg>
