<svg width="18" height="18" viewBox="0 0 18 18" fill="none" xmlns="http://www.w3.org/2000/svg">
<g clip-path="url(#clip0_344_1257)">
<path d="M9.00407 5.94189C7.47031 5.94189 6.22217 7.19004 6.22217 8.7238C6.22217 10.2576 7.47031 11.5057 9.00407 11.5057C10.5378 11.5057 11.786 10.2576 11.786 8.7238C11.786 7.19004 10.5378 5.94189 9.00407 5.94189Z" fill="white"/>
<path d="M16.4903 6.86904H15.8666C15.7074 6.27835 15.4734 5.713 15.168 5.18228L15.6088 4.7415C15.771 4.57922 15.8604 4.36316 15.8604 4.13381C15.8604 3.90415 15.771 3.68839 15.6088 3.52581L14.2014 2.11847C13.8769 1.79423 13.3109 1.79361 12.9857 2.11847L12.545 2.55925C12.0145 2.25417 11.4492 2.02018 10.8585 1.86099V1.23723C10.8585 0.763378 10.4731 0.37793 9.99921 0.37793H8.00861C7.53476 0.37793 7.14931 0.763378 7.14931 1.23723V1.86099C6.55862 2.02018 5.99327 2.25417 5.46255 2.55956L5.02177 2.11878C4.69691 1.79361 4.13064 1.79423 3.80608 2.11878L2.39875 3.52612C2.23647 3.68839 2.14714 3.90446 2.14714 4.13412C2.14714 4.36347 2.23647 4.57922 2.39875 4.74181L2.83952 5.18258C2.53444 5.713 2.30014 6.27835 2.14127 6.86904H1.5175C1.04365 6.86904 0.658203 7.25448 0.658203 7.72833V9.71832C0.658203 10.1925 1.04365 10.5782 1.5175 10.5782H2.14127C2.30045 11.1689 2.53444 11.7343 2.83983 12.265L2.39906 12.7058C2.23678 12.8681 2.14745 13.0841 2.14745 13.3135C2.14745 13.5431 2.23678 13.7589 2.39906 13.9215L3.80639 15.3288C4.13095 15.6537 4.69722 15.654 5.02208 15.3288L5.46286 14.888C5.99358 15.1931 6.55893 15.4274 7.14962 15.5866V16.21C7.14931 16.6836 7.53476 17.0693 8.00861 17.0693H9.99891C10.4728 17.0693 10.8582 16.6836 10.8582 16.2097V15.5863C11.4489 15.4271 12.0142 15.1931 12.545 14.8877L12.9857 15.3285C13.3109 15.6537 13.8766 15.653 14.2014 15.3285L15.6088 13.9212C15.771 13.7589 15.8604 13.5428 15.8604 13.3132C15.8604 13.0838 15.771 12.8681 15.6088 12.7055L15.168 12.2647C15.4731 11.734 15.7074 11.1686 15.8666 10.5779H16.4903C16.9642 10.5779 17.3496 10.1922 17.3496 9.71832V7.72833C17.3496 7.25448 16.9642 6.86904 16.4903 6.86904ZM12.7131 8.72364C12.7131 10.769 11.0492 12.4328 9.00391 12.4328C6.95859 12.4328 5.29471 10.769 5.29471 8.72364C5.29471 6.67832 6.95859 5.01443 9.00391 5.01443C11.0492 5.01443 12.7131 6.67832 12.7131 8.72364Z" fill="white"/>
</g>
<defs>
<clipPath id="clip0_344_1257">
<rect width="16.6914" height="16.6914" fill="white" transform="translate(0.658203 0.37793)"/>
</clipPath>
</defs>
</svg>
