<svg width="31" height="31" viewBox="0 0 31 31" fill="none" xmlns="http://www.w3.org/2000/svg">
<g clip-path="url(#clip0_471_473)">
<path d="M9.76864 28.0939C21.1362 28.0939 27.3556 18.4022 27.3556 10.0001C27.3556 9.72766 27.3497 9.44914 27.3379 9.17668C28.5478 8.27652 29.5919 7.16154 30.4211 5.88414C29.2944 6.39991 28.098 6.73675 26.873 6.88316C28.1629 6.08772 29.1287 4.83811 29.5913 3.366C28.3779 4.10585 27.0509 4.62775 25.6672 4.90934C24.7348 3.89015 23.5021 3.21532 22.1597 2.9892C20.8172 2.76307 19.4397 2.99824 18.2401 3.65834C17.0406 4.31844 16.0858 5.36671 15.5234 6.64107C14.961 7.91544 14.8223 9.34492 15.1288 10.7085C12.6717 10.5817 10.268 9.925 8.07352 8.78109C5.87899 7.63718 3.94262 6.03157 2.38993 4.06834C1.60078 5.46815 1.35929 7.12459 1.71456 8.701C2.06983 10.2774 2.99519 11.6555 4.30258 12.5552C3.32107 12.5231 2.36107 12.2513 1.50188 11.762V11.8407C1.501 13.3097 1.99462 14.7337 2.89883 15.8706C3.80305 17.0075 5.06205 17.7872 6.46182 18.0771C5.5526 18.333 4.59834 18.3703 3.67288 18.1861C4.06787 19.4494 4.83637 20.5544 5.87114 21.3467C6.9059 22.1391 8.1553 22.5793 9.44496 22.606C7.2555 24.3754 4.55088 25.3351 1.7667 25.3306C1.27295 25.3298 0.77969 25.2987 0.289551 25.2373C3.11797 27.1042 6.40818 28.0958 9.76864 28.0939Z" fill="white"/>
</g>
<defs>
<clipPath id="clip0_471_473">
<rect width="30.1316" height="31" fill="white" transform="translate(0.289551)"/>
</clipPath>
</defs>
</svg>
