<svg width="7" height="7" viewBox="0 0 7 7" fill="none" xmlns="http://www.w3.org/2000/svg">
<path d="M5.90482 0.27002H0.993247C0.815615 0.27002 0.645259 0.341642 0.519655 0.46913C0.39405 0.596619 0.323486 0.76953 0.323486 0.949826L0.323486 5.93508C0.323486 6.11537 0.39405 6.28828 0.519655 6.41577C0.645259 6.54326 0.815615 6.61488 0.993247 6.61488H5.90482C6.08246 6.61488 6.25281 6.54326 6.37842 6.41577C6.50402 6.28828 6.57458 6.11537 6.57458 5.93508V0.949826C6.57458 0.76953 6.50402 0.596619 6.37842 0.46913C6.25281 0.341642 6.08246 0.27002 5.90482 0.27002ZM5.67613 4.62319L5.46683 5.54376C5.4562 5.59057 5.43025 5.63233 5.39323 5.66224C5.35621 5.69216 5.31029 5.70845 5.26297 5.70847C3.03044 5.70847 1.2165 3.87144 1.2165 1.60131C1.21816 1.55373 1.23482 1.50795 1.26404 1.4707C1.29325 1.43345 1.33347 1.4067 1.37878 1.39439L2.28575 1.18195C2.30122 1.17863 2.31696 1.17678 2.33277 1.17643C2.37324 1.1785 2.41243 1.19153 2.44627 1.21417C2.4801 1.23681 2.50735 1.26823 2.52518 1.30517L2.94378 2.29655C2.95404 2.32328 2.95975 2.35158 2.96067 2.38025C2.95726 2.44314 2.92971 2.50217 2.88392 2.54468L2.35523 2.98372C2.67558 3.67287 3.22203 4.22751 3.90098 4.55266L4.33354 4.01604C4.37542 3.96957 4.43358 3.9416 4.49554 3.93814C4.52378 3.93907 4.55167 3.94486 4.578 3.95528L5.55473 4.38016C5.59114 4.39824 5.62211 4.42589 5.64442 4.46024C5.66673 4.49458 5.67956 4.53437 5.68157 4.57546C5.68129 4.59151 5.67947 4.6075 5.67613 4.62319Z" fill="#F2F2F2"/>
</svg>
