<svg width="9" height="6" viewBox="0 0 9 6" fill="none" xmlns="http://www.w3.org/2000/svg">
<path d="M3.10754 0.664062C3.33849 0.664062 3.55168 0.681828 3.7471 0.735124C3.94252 0.770655 4.10241 0.841717 4.24453 0.930544C4.38665 1.01937 4.49324 1.14373 4.56431 1.30362C4.63537 1.46351 4.6709 1.65893 4.6709 1.87211C4.6709 2.12083 4.6176 2.33401 4.49324 2.4939C4.38665 2.65379 4.209 2.79591 3.99581 2.9025C4.29783 2.99133 4.52878 3.15122 4.6709 3.3644C4.81302 3.57759 4.90185 3.84407 4.90185 4.14608C4.90185 4.3948 4.84855 4.60798 4.75973 4.78564C4.6709 4.96329 4.52878 5.12318 4.36889 5.22977C4.209 5.33637 4.01358 5.42519 3.80039 5.47849C3.58721 5.53179 3.37402 5.56732 3.16084 5.56732H0.780273V0.664062H3.10754ZM2.96542 2.65379C3.16084 2.65379 3.32073 2.60049 3.44509 2.51167C3.56944 2.42284 3.62274 2.26295 3.62274 2.06753C3.62274 1.96094 3.60497 1.85435 3.56944 1.78328C3.53391 1.71222 3.48062 1.65893 3.40955 1.60563C3.33849 1.5701 3.26743 1.53457 3.1786 1.5168C3.08978 1.49904 3.00095 1.49904 2.89436 1.49904H1.86396V2.65379H2.96542ZM3.01872 4.75011C3.12531 4.75011 3.2319 4.73234 3.32073 4.71458C3.40955 4.69681 3.49838 4.66128 3.56944 4.60798C3.64051 4.55469 3.6938 4.50139 3.7471 4.41256C3.78263 4.32374 3.81816 4.21714 3.81816 4.09279C3.81816 3.84407 3.7471 3.66642 3.60497 3.54206C3.46285 3.43547 3.26743 3.38217 3.03648 3.38217H1.86396V4.75011H3.01872ZM6.44744 4.73234C6.58956 4.87446 6.80275 4.94553 7.087 4.94553C7.28241 4.94553 7.46007 4.89223 7.60219 4.8034C7.74432 4.69681 7.83314 4.59022 7.86867 4.48363H8.73918C8.59706 4.91 8.38387 5.21201 8.09962 5.40743C7.81538 5.58508 7.47783 5.69167 7.06923 5.69167C6.78498 5.69167 6.53627 5.63838 6.30532 5.54955C6.07437 5.46072 5.89671 5.33637 5.73682 5.15871C5.57694 4.99882 5.45258 4.8034 5.38152 4.57245C5.29269 4.3415 5.25716 4.09279 5.25716 3.80854C5.25716 3.54206 5.29269 3.29334 5.38152 3.06239C5.47034 2.83144 5.5947 2.63602 5.75459 2.45837C5.91448 2.29848 6.1099 2.15636 6.32308 2.06753C6.55403 1.9787 6.78498 1.92541 7.06923 1.92541C7.37124 1.92541 7.63772 1.9787 7.86867 2.10306C8.09962 2.22742 8.27728 2.36954 8.4194 2.58273C8.56152 2.77815 8.66812 3.0091 8.73918 3.25781C8.77471 3.50653 8.79247 3.75524 8.77471 4.03949H6.19872C6.19872 4.32374 6.30532 4.59022 6.44744 4.73234ZM7.56666 2.86697C7.4423 2.74262 7.24688 2.67155 7.01593 2.67155C6.85604 2.67155 6.73169 2.70708 6.62509 2.76038C6.5185 2.81368 6.44744 2.88474 6.37638 2.9558C6.30532 3.02686 6.26979 3.11569 6.25202 3.20452C6.23426 3.29334 6.21649 3.36441 6.21649 3.43547H7.81538C7.77985 3.16899 7.69102 2.99133 7.56666 2.86697ZM6.0033 1.00161H7.99303V1.48127H6.0033V1.00161Z" fill="#F2F2F2"/>
</svg>
