<svg width="9" height="10" viewBox="0 0 9 10" fill="none" xmlns="http://www.w3.org/2000/svg">
<path d="M4.49977 0.931641C2.15591 0.931641 0.249023 2.83853 0.249023 5.18239C0.249023 7.52625 2.15591 9.43313 4.49977 9.43313C6.84363 9.43313 8.75052 7.52625 8.75052 5.18239C8.75052 2.83853 6.84363 0.931641 4.49977 0.931641ZM1.09917 5.18239C1.09917 4.80025 1.16548 4.43341 1.28238 4.09037L1.94932 4.75731L2.79947 5.60746V6.45761L3.64962 7.30776L4.0747 7.73284V8.55365C2.40033 8.34324 1.09917 6.91329 1.09917 5.18239ZM7.19049 7.25378C6.91292 7.03019 6.49209 6.88269 6.20007 6.88269V6.45761C6.20007 6.23214 6.1105 6.0159 5.95107 5.85646C5.79163 5.69703 5.57539 5.60746 5.34992 5.60746H3.64962V4.33224C3.87509 4.33224 4.09133 4.24267 4.25077 4.08323C4.4102 3.9238 4.49977 3.70756 4.49977 3.48209V3.05701H4.92484C5.15032 3.05701 5.36656 2.96744 5.52599 2.80801C5.68542 2.64858 5.77499 2.43234 5.77499 2.20686V2.03216C7.01961 2.53757 7.90037 3.75839 7.90037 5.18239C7.90029 5.93252 7.65054 6.66128 7.19049 7.25378Z" fill="#F2F2F2"/>
</svg>
