<svg width="8" height="7" viewBox="0 0 8 7" fill="none" xmlns="http://www.w3.org/2000/svg">
<path d="M0.740196 2.86365V5.69748H6.40786V2.86365L3.57403 3.92634L0.740196 2.86365ZM0.740196 1.44674V2.1552L3.57403 3.21788L6.40786 2.1552V1.44674H0.740196ZM0.740196 0.738281H6.40786C6.59575 0.738281 6.77595 0.812922 6.90881 0.945784C7.04168 1.07865 7.11632 1.25884 7.11632 1.44674V5.69748C7.11632 5.88538 7.04168 6.06558 6.90881 6.19844C6.77595 6.3313 6.59575 6.40594 6.40786 6.40594H0.740196C0.552301 6.40594 0.372102 6.3313 0.239241 6.19844C0.106379 6.06558 0.0317383 5.88538 0.0317383 5.69748V1.44674C0.0317383 1.25884 0.106379 1.07865 0.239241 0.945784C0.372102 0.812922 0.552301 0.738281 0.740196 0.738281Z" fill="#F2F2F2"/>
</svg>
