<svg width="7" height="8" viewBox="0 0 7 8" fill="none" xmlns="http://www.w3.org/2000/svg">
<path d="M6.02776 1.11488C6.02755 0.909783 5.94598 0.713146 5.80095 0.568119C5.65592 0.423092 5.45929 0.341522 5.25419 0.341309H1.64418C1.43908 0.341522 1.24244 0.423092 1.09742 0.568119C0.952389 0.713146 0.870819 0.909783 0.870605 1.11488V6.78775C0.870819 6.99285 0.952389 7.18949 1.09742 7.33452C1.24244 7.47954 1.43908 7.56111 1.64418 7.56133H5.25419C5.45929 7.56111 5.65592 7.47954 5.80095 7.33452C5.94598 7.18949 6.02755 6.99285 6.02776 6.78775V1.11488ZM2.03097 6.78775C1.95447 6.78775 1.87969 6.76507 1.81608 6.72257C1.75247 6.68007 1.7029 6.61966 1.67362 6.54898C1.64435 6.47831 1.63669 6.40054 1.65161 6.32551C1.66653 6.25048 1.70337 6.18156 1.75747 6.12747C1.81156 6.07337 1.88048 6.03654 1.95551 6.02161C2.03054 6.00669 2.10831 6.01435 2.17898 6.04362C2.24966 6.0729 2.31007 6.12247 2.35257 6.18608C2.39507 6.24969 2.41775 6.32447 2.41775 6.40097C2.41775 6.50355 2.377 6.60193 2.30446 6.67447C2.23193 6.747 2.13355 6.78775 2.03097 6.78775ZM2.03097 5.49846C1.95447 5.49846 1.87969 5.47578 1.81608 5.43328C1.75247 5.39078 1.7029 5.33037 1.67362 5.25969C1.64435 5.18902 1.63669 5.11125 1.65161 5.03622C1.66653 4.96119 1.70337 4.89227 1.75747 4.83818C1.81156 4.78409 1.88048 4.74725 1.95551 4.73232C2.03054 4.7174 2.10831 4.72506 2.17898 4.75433C2.24966 4.78361 2.31007 4.83318 2.35257 4.89679C2.39507 4.9604 2.41775 5.03518 2.41775 5.11168C2.41775 5.21426 2.377 5.31264 2.30446 5.38518C2.23193 5.45771 2.13355 5.49846 2.03097 5.49846ZM2.03097 4.20918C1.95447 4.20918 1.87969 4.18649 1.81608 4.14399C1.75247 4.10149 1.7029 4.04108 1.67362 3.97041C1.64435 3.89973 1.63669 3.82196 1.65161 3.74693C1.66653 3.6719 1.70337 3.60298 1.75747 3.54889C1.81156 3.4948 1.88048 3.45796 1.95551 3.44303C2.03054 3.42811 2.10831 3.43577 2.17898 3.46504C2.24966 3.49432 2.31007 3.5439 2.35257 3.6075C2.39507 3.67111 2.41775 3.74589 2.41775 3.82239C2.41775 3.92497 2.377 4.02335 2.30446 4.09589C2.23193 4.16842 2.13355 4.20918 2.03097 4.20918ZM3.44918 6.78775C3.37268 6.78775 3.2979 6.76507 3.2343 6.72257C3.17069 6.68007 3.12111 6.61966 3.09184 6.54898C3.06256 6.47831 3.0549 6.40054 3.06983 6.32551C3.08475 6.25048 3.12159 6.18156 3.17568 6.12747C3.22978 6.07337 3.2987 6.03654 3.37372 6.02161C3.44875 6.00669 3.52652 6.01435 3.5972 6.04362C3.66788 6.0729 3.72828 6.12247 3.77078 6.18608C3.81329 6.24969 3.83597 6.32447 3.83597 6.40097C3.83597 6.50355 3.79522 6.60193 3.72268 6.67447C3.65015 6.747 3.55177 6.78775 3.44918 6.78775ZM3.44918 5.49846C3.37268 5.49846 3.2979 5.47578 3.2343 5.43328C3.17069 5.39078 3.12111 5.33037 3.09184 5.25969C3.06256 5.18902 3.0549 5.11125 3.06983 5.03622C3.08475 4.96119 3.12159 4.89227 3.17568 4.83818C3.22978 4.78409 3.2987 4.74725 3.37372 4.73232C3.44875 4.7174 3.52652 4.72506 3.5972 4.75433C3.66788 4.78361 3.72828 4.83318 3.77078 4.89679C3.81329 4.9604 3.83597 5.03518 3.83597 5.11168C3.83597 5.21426 3.79522 5.31264 3.72268 5.38518C3.65015 5.45771 3.55177 5.49846 3.44918 5.49846ZM3.44918 4.20918C3.37268 4.20918 3.2979 4.18649 3.2343 4.14399C3.17069 4.10149 3.12111 4.04108 3.09184 3.97041C3.06256 3.89973 3.0549 3.82196 3.06983 3.74693C3.08475 3.6719 3.12159 3.60298 3.17568 3.54889C3.22978 3.4948 3.2987 3.45796 3.37372 3.44303C3.44875 3.42811 3.52652 3.43577 3.5972 3.46504C3.66788 3.49432 3.72828 3.5439 3.77078 3.6075C3.81329 3.67111 3.83597 3.74589 3.83597 3.82239C3.83597 3.92497 3.79522 4.02335 3.72268 4.09589C3.65015 4.16842 3.55177 4.20918 3.44918 4.20918ZM5.25419 6.40097C5.25419 6.50355 5.21344 6.60193 5.1409 6.67447C5.06836 6.747 4.96998 6.78775 4.8674 6.78775C4.76482 6.78775 4.66644 6.747 4.5939 6.67447C4.52137 6.60193 4.48061 6.50355 4.48061 6.40097V5.11168C4.48061 5.0091 4.52137 4.91072 4.5939 4.83818C4.66644 4.76564 4.76482 4.72489 4.8674 4.72489C4.96998 4.72489 5.06836 4.76564 5.1409 4.83818C5.21344 4.91072 5.25419 5.0091 5.25419 5.11168V6.40097ZM4.8674 4.20918C4.7909 4.20918 4.71612 4.18649 4.65251 4.14399C4.58891 4.10149 4.53933 4.04108 4.51006 3.97041C4.48078 3.89973 4.47312 3.82196 4.48805 3.74693C4.50297 3.6719 4.53981 3.60298 4.5939 3.54889C4.64799 3.4948 4.71691 3.45796 4.79194 3.44303C4.86697 3.42811 4.94474 3.43577 5.01542 3.46504C5.08609 3.49432 5.1465 3.5439 5.189 3.6075C5.2315 3.67111 5.25419 3.74589 5.25419 3.82239C5.25419 3.92497 5.21344 4.02335 5.1409 4.09589C5.06836 4.16842 4.96998 4.20918 4.8674 4.20918ZM5.1786 2.58644C5.13027 2.63481 5.06471 2.662 4.99633 2.66203H1.90204C1.83365 2.66203 1.76806 2.63486 1.7197 2.5865C1.67135 2.53815 1.64418 2.47256 1.64418 2.40417V1.37274C1.64418 1.30435 1.67135 1.23876 1.7197 1.19041C1.76806 1.14205 1.83365 1.11488 1.90204 1.11488H4.99633C5.06472 1.11488 5.13031 1.14205 5.17866 1.19041C5.22702 1.23876 5.25419 1.30435 5.25419 1.37274V2.40417C5.25416 2.47255 5.22697 2.53811 5.1786 2.58644Z" fill="#F2F2F2"/>
</svg>
