<svg width="5" height="9" viewBox="0 0 5 9" fill="none" xmlns="http://www.w3.org/2000/svg">
<path d="M2.44891 0.30957C1.1022 0.30957 0.0109863 1.3964 0.0109863 2.74262C0.0109863 5.07036 2.44891 8.10607 2.44891 8.10607C2.44891 8.10607 4.88684 5.06987 4.88684 2.74262C4.88684 1.39689 3.79563 0.30957 2.44891 0.30957ZM2.44891 4.08885C2.09976 4.08885 1.76491 3.95015 1.51802 3.70326C1.27113 3.45637 1.13243 3.12152 1.13243 2.77237C1.13243 2.42321 1.27113 2.08836 1.51802 1.84147C1.76491 1.59458 2.09976 1.45588 2.44891 1.45588C2.79807 1.45588 3.13292 1.59458 3.37981 1.84147C3.6267 2.08836 3.7654 2.42321 3.7654 2.77237C3.7654 3.12152 3.6267 3.45637 3.37981 3.70326C3.13292 3.95015 2.79807 4.08885 2.44891 4.08885Z" fill="#F2F2F2"/>
</svg>
